<?xml version="1.0" standalone="no"?>
<!DOCTYPE svg PUBLIC "-//W3C//DTD SVG 20010904//EN"
 "http://www.w3.org/TR/2001/REC-SVG-20010904/DTD/svg10.dtd">
<svg version="1.0" xmlns="http://www.w3.org/2000/svg"
 width="500.000000pt" height="500.000000pt" viewBox="0 0 500.000000 500.000000"
 preserveAspectRatio="xMidYMid meet">
<metadata>
Created by potrace 1.14, written by Peter Selinger 2001-2017
</metadata>
<g transform="translate(0.000000,500.000000) scale(0.100000,-0.100000)"
fill="#000000" stroke="none">
<path d="M2875 4510 c-8 -13 5 -13 25 0 13 8 13 10 -2 10 -9 0 -20 -4 -23 -10z"/>
<path d="M2750 4490 c0 -5 6 -10 14 -10 8 0 18 5 21 10 3 6 -3 10 -14 10 -12
0 -21 -4 -21 -10z"/>
<path d="M2800 4490 c0 -12 17 -12 45 0 17 7 15 9 -12 9 -18 1 -33 -3 -33 -9z"/>
<path d="M380 2690 l0 -1280 170 0 170 0 2 569 3 570 64 -72 c35 -40 85 -94
110 -122 41 -44 168 -183 296 -324 22 -25 67 -74 101 -110 33 -36 112 -122
174 -191 63 -69 154 -169 204 -223 l89 -97 225 0 225 0 -63 68 c-61 64 -95
100 -315 332 -55 58 -129 137 -165 175 -93 100 -440 465 -531 560 -43 44 -86
91 -97 105 l-19 25 150 165 c83 91 225 246 316 345 243 262 251 271 461 500
106 116 209 227 229 248 l35 37 -222 0 -222 0 -437 -492 c-240 -271 -444 -500
-452 -509 -9 -9 -31 -34 -50 -55 -19 -21 -52 -58 -73 -81 l-38 -43 0 590 0
590 -170 0 -170 0 0 -1280z"/>
<path d="M2590 2690 l0 -1280 170 0 170 0 2 1010 3 1010 434 -652 c238 -359
541 -814 673 -1011 l238 -357 170 0 170 0 0 1280 0 1280 -170 0 -170 0 -2
-1012 -3 -1011 -672 1011 -673 1012 -170 0 -170 0 0 -1280z"/>
<path d="M1330 737 c0 -10 29 -67 34 -67 2 0 3 6 2 13 -2 14 -36 65 -36 54z"/>
<path d="M80 390 c8 -5 20 -10 25 -10 6 0 3 5 -5 10 -8 5 -19 10 -25 10 -5 0
-3 -5 5 -10z"/>
</g>
</svg>
